<svg width="132" height="31" fill="none" xmlns="http://www.w3.org/2000/svg"><path d="M22.877 9.281c-4.287 4.489-4.037 8.247.944 11.491-1.172 2.554-2.352 5.183-4.85 6.718-.898.552-2.466.598-3.498.228-2.061-.738-3.969-.873-5.955.028-1.552.704-2.955.495-4.295-.592C1.424 24.074-.98 16.382.386 11.706c1.07-3.665 5.245-7.119 9.77-4.695 1.698.908 3.259.475 4.905-.199 3.228-1.32 5.77-.47 7.816 2.469Z" fill="#202020"/><path d="M17.044 0c.348 3.37-1.843 6.088-5.133 6.483C11.121 3.56 13.51.48 17.044 0ZM42.569 13.592H39.88V5.174h2.688c1.271 0 2.297.408 3.08 1.224.782.808 1.174 1.805 1.174 2.991 0 1.195-.392 2.196-1.174 3.004-.774.8-1.8 1.199-3.08 1.199Zm0-.656c1.076 0 1.926-.337 2.549-1.01.63-.673.947-1.519.947-2.537s-.312-1.863-.934-2.537c-.623-.681-1.477-1.022-2.563-1.022H40.6v7.106h1.968ZM51.168 13.743c-.875 0-1.582-.307-2.12-.92-.539-.615-.808-1.377-.808-2.285 0-.909.27-1.666.808-2.272.538-.614 1.245-.921 2.12-.921.884 0 1.595.307 2.133.921.539.606.808 1.363.808 2.272 0 .909-.27 1.67-.808 2.284-.538.614-1.25.921-2.133.921Zm0-.593c.69 0 1.233-.252 1.628-.757.404-.513.606-1.132.606-1.855 0-.715-.202-1.325-.606-1.83-.395-.514-.938-.77-1.628-.77-.681 0-1.224.256-1.628.77-.395.505-.593 1.115-.593 1.83 0 .715.198 1.33.593 1.842.404.514.947.77 1.628.77ZM61.66 13.592h-.631L59.325 8.38l-1.717 5.212h-.63l-1.982-6.096h.707l1.615 5.175 1.717-5.175h.568l1.716 5.175 1.616-5.175h.706l-1.981 6.096ZM69.646 13.592h-.656V9.465c0-.555-.127-.947-.38-1.174-.251-.235-.617-.353-1.097-.353-.379 0-.753.1-1.123.303-.37.202-.657.45-.859.744v4.607h-.656V7.496h.656v.921c.244-.286.568-.534.972-.744a2.546 2.546 0 0 1 1.224-.328c1.28 0 1.919.66 1.919 1.981v4.266ZM72.347 13.592h-.656V5.174h.656v8.418ZM76.965 13.743c-.875 0-1.582-.307-2.12-.92-.539-.615-.808-1.377-.808-2.285 0-.909.269-1.666.807-2.272.539-.614 1.246-.921 2.12-.921.884 0 1.595.307 2.134.921.538.606.808 1.363.808 2.272 0 .909-.27 1.67-.808 2.284-.539.614-1.25.921-2.133.921Zm0-.593c.69 0 1.232-.252 1.628-.757.404-.513.606-1.132.606-1.855 0-.715-.202-1.325-.606-1.83-.396-.514-.938-.77-1.628-.77-.682 0-1.224.256-1.628.77-.396.505-.594 1.115-.594 1.83 0 .715.198 1.33.594 1.842.404.514.946.77 1.628.77ZM86.131 13.592h-.656v-.72c-.53.581-1.22.871-2.07.871-.564 0-1.06-.18-1.49-.542-.428-.37-.643-.867-.643-1.49 0-.63.21-1.123.631-1.476.43-.362.93-.543 1.502-.543.858 0 1.548.29 2.07.871V9.326c0-.437-.156-.778-.467-1.022-.311-.253-.703-.379-1.174-.379-.749 0-1.384.299-1.906.896l-.365-.454c.63-.682 1.413-1.022 2.347-1.022.656 0 1.19.164 1.603.492.412.328.618.816.618 1.464v4.291Zm-2.499-.366c.8 0 1.414-.278 1.843-.833v-1.338c-.438-.563-1.052-.845-1.843-.845-.496 0-.9.143-1.211.429a1.429 1.429 0 0 0-.455 1.085c0 .438.152.8.455 1.085.311.278.715.417 1.211.417ZM93.344 13.592h-.669v-.972c-.227.328-.53.598-.909.808-.37.21-.774.315-1.211.315-.816 0-1.477-.29-1.982-.87-.496-.58-.744-1.355-.744-2.323 0-.959.252-1.733.757-2.322s1.161-.883 1.969-.883c.875 0 1.582.378 2.12 1.136V5.174h.669v8.418Zm-2.676-.442a2.34 2.34 0 0 0 1.174-.315c.37-.21.648-.467.833-.77V9.048c-.185-.31-.463-.572-.833-.782a2.272 2.272 0 0 0-1.174-.328c-.656 0-1.178.248-1.565.744-.378.488-.568 1.111-.568 1.868 0 .758.19 1.38.568 1.868.387.488.909.732 1.565.732ZM101.233 13.743c-.875 0-1.582-.307-2.12-.92-.539-.615-.808-1.377-.808-2.285 0-.909.27-1.666.808-2.272.538-.614 1.245-.921 2.12-.921.884 0 1.595.307 2.133.921.539.606.808 1.363.808 2.272 0 .909-.269 1.67-.808 2.284-.538.614-1.249.921-2.133.921Zm0-.593c.69 0 1.233-.252 1.628-.757.404-.513.606-1.132.606-1.855 0-.715-.202-1.325-.606-1.83-.395-.514-.938-.77-1.628-.77-.681 0-1.224.256-1.628.77-.395.505-.593 1.115-.593 1.83 0 .715.198 1.33.593 1.842.404.514.947.77 1.628.77ZM110.639 13.592h-.656V9.465c0-.555-.126-.947-.379-1.174-.252-.235-.618-.353-1.098-.353-.378 0-.753.1-1.123.303a2.42 2.42 0 0 0-.858.744v4.607h-.656V7.496h.656v.921c.244-.286.568-.534.972-.744a2.547 2.547 0 0 1 1.224-.328c1.279 0 1.918.66 1.918 1.981v4.266ZM117.276 13.743c-.799 0-1.199-.441-1.199-1.325V8.077h-1.01v-.58h1.01V5.83h.669v1.666h1.237v.58h-1.237v4.241c0 .556.21.833.631.833a.88.88 0 0 0 .681-.29l.253.505c-.269.252-.614.378-1.035.378ZM124.197 13.592h-.656V9.44c0-.556-.126-.943-.379-1.161-.252-.228-.618-.341-1.098-.341-.378 0-.753.1-1.123.303a2.42 2.42 0 0 0-.858.744v4.607h-.657V5.174h.657v3.243c.244-.286.568-.534.971-.744a2.547 2.547 0 0 1 1.225-.328c1.279 0 1.918.652 1.918 1.956v4.291ZM128.943 13.743c-.892 0-1.624-.298-2.196-.896-.572-.597-.858-1.367-.858-2.31 0-.891.277-1.644.833-2.258a2.726 2.726 0 0 1 2.107-.934c.892 0 1.595.311 2.108.934.513.614.77 1.38.77 2.297v.176h-5.099c.034.69.265 1.267.694 1.73.429.462.993.694 1.692.694.807 0 1.472-.282 1.994-.846l.34.429c-.631.656-1.426.984-2.385.984Zm2.095-3.508a2.548 2.548 0 0 0-.593-1.603c-.379-.48-.921-.72-1.628-.72-.665 0-1.195.24-1.59.72a2.64 2.64 0 0 0-.619 1.603h4.43ZM47.516 28.155H45.47l-.517-1.427h-3.61l-.53 1.427H38.77l3.256-8.419h2.246l3.244 8.419Zm-3.054-3.004-1.313-3.622-1.313 3.622h2.626ZM51.739 28.306c-.766 0-1.393-.311-1.88-.934v3.105h-1.604v-8.418h1.603v.77c.48-.615 1.107-.922 1.88-.922.8 0 1.448.286 1.944.859.505.563.758 1.342.758 2.334 0 .993-.253 1.776-.758 2.348-.496.572-1.144.858-1.943.858Zm-.505-1.426c.463 0 .833-.164 1.11-.492.287-.328.43-.758.43-1.288 0-.521-.143-.946-.43-1.274-.277-.328-.647-.492-1.11-.492-.26 0-.522.067-.783.201-.26.135-.458.3-.593.493v2.158c.135.193.333.357.593.492.27.135.53.202.783.202ZM59.097 28.306c-.766 0-1.393-.311-1.88-.934v3.105h-1.603v-8.418h1.602v.77c.48-.615 1.107-.922 1.88-.922.8 0 1.448.286 1.945.859.504.563.757 1.342.757 2.334 0 .993-.253 1.776-.757 2.348-.497.572-1.145.858-1.944.858Zm-.505-1.426c.463 0 .833-.164 1.11-.492.287-.328.43-.758.43-1.288 0-.521-.143-.946-.43-1.274-.277-.328-.647-.492-1.11-.492-.26 0-.522.067-.782.201a1.59 1.59 0 0 0-.594.493v2.158c.135.193.333.357.594.492.269.135.53.202.782.202ZM69.23 28.306c-1.498 0-2.684-.446-3.56-1.338l.973-1.363c.723.758 1.615 1.136 2.675 1.136.463 0 .82-.088 1.073-.265.26-.185.391-.408.391-.669 0-.227-.122-.416-.366-.568-.235-.151-.534-.26-.896-.328a11.677 11.677 0 0 1-2.335-.72 2.203 2.203 0 0 1-.896-.756c-.235-.345-.353-.766-.353-1.263 0-.723.29-1.329.87-1.817.581-.497 1.355-.745 2.323-.745 1.338 0 2.432.392 3.281 1.174l-.997 1.313c-.664-.615-1.48-.922-2.448-.922-.379 0-.673.076-.884.227a.722.722 0 0 0-.315.619c0 .202.118.374.353.517.244.135.543.236.896.303a9.16 9.16 0 0 1 1.162.303c.42.126.807.274 1.16.442.362.16.661.416.897.77.244.345.366.761.366 1.25 0 .807-.29 1.46-.871 1.955-.572.497-1.405.745-2.5.745ZM75.64 28.306c-.563 0-.992-.143-1.287-.429-.294-.286-.441-.698-.441-1.237v-3.18h-1.01v-1.401h1.01v-1.666h1.615v1.666h1.237v1.4h-1.237v2.752c0 .194.05.354.151.48.101.126.236.189.404.189.253 0 .438-.059.556-.177l.34 1.212c-.294.26-.74.391-1.337.391ZM83.035 27.385c-.589.614-1.371.921-2.347.921s-1.759-.307-2.348-.921c-.58-.623-.87-1.384-.87-2.285 0-.9.29-1.657.87-2.271.59-.615 1.372-.922 2.348-.922.976 0 1.758.307 2.347.922.59.614.884 1.371.884 2.271 0 .9-.295 1.662-.884 2.285Zm-3.483-1.01c.277.337.656.505 1.136.505.48 0 .858-.168 1.135-.505.287-.345.43-.77.43-1.275 0-.496-.143-.913-.43-1.249-.277-.345-.656-.517-1.135-.517-.48 0-.859.172-1.136.517-.278.337-.417.753-.417 1.25 0 .504.139.93.417 1.274ZM86.71 28.155h-1.602v-6.096h1.603v.833c.227-.286.517-.522.87-.707a2.29 2.29 0 0 1 1.073-.278v1.565a2.118 2.118 0 0 0-1.3.164c-.303.135-.517.3-.643.493v4.026ZM92.52 28.306c-.942 0-1.72-.294-2.334-.883-.614-.59-.922-1.363-.922-2.323 0-.9.295-1.657.884-2.271.597-.615 1.355-.922 2.272-.922.908 0 1.645.312 2.208.934.564.614.846 1.422.846 2.424v.353h-4.531c.05.404.231.74.543 1.01.311.269.715.403 1.211.403.27 0 .56-.054.871-.164.32-.109.572-.256.758-.441l.706 1.035c-.614.563-1.451.845-2.511.845Zm1.402-3.774a1.527 1.527 0 0 0-.417-.933c-.244-.278-.606-.417-1.085-.417-.455 0-.808.139-1.06.417-.253.269-.4.58-.442.933h3.004Z" fill="#202020"/></svg>