<?xml version="1.0" encoding="utf-8"?><svg viewBox="0 0 132 32" xmlns="http://www.w3.org/2000/svg" xmlns:xlink="http://www.w3.org/1999/xlink"><style>:root>svg{display:none}:root>svg:target{display:block}</style><svg viewBox="0 0 118 31" id="android" xmlns="http://www.w3.org/2000/svg"><path d="M53.276 11.204c-1.203 0-2.217-.408-3.042-1.224-.816-.816-1.224-1.863-1.224-3.142 0-1.28.408-2.323 1.224-3.13.825-.817 1.839-1.225 3.042-1.225 1.279 0 2.335.48 3.168 1.44l-.543.39a3.196 3.196 0 0 0-1.149-.858 3.472 3.472 0 0 0-1.476-.315c-1.001 0-1.839.345-2.512 1.035-.665.69-.997 1.577-.997 2.663 0 1.077.332 1.964.997 2.663.673.698 1.51 1.047 2.512 1.047.513 0 .984-.1 1.413-.303.43-.202.783-.441 1.06-.72V7.508h-3.18v-.644h3.9v2.94c-.833.934-1.897 1.401-3.193 1.401Zm7.698-.012c-.892 0-1.624-.299-2.196-.896-.572-.598-.858-1.367-.858-2.31 0-.892.277-1.645.833-2.259a2.726 2.726 0 0 1 2.107-.934c.892 0 1.595.311 2.108.934.513.614.77 1.38.77 2.297v.177h-5.099c.034.69.265 1.266.694 1.729.43.463.993.694 1.691.694.808 0 1.473-.282 1.994-.846l.341.43c-.63.656-1.426.984-2.385.984Zm2.095-3.509a2.55 2.55 0 0 0-.593-1.603c-.379-.48-.922-.719-1.628-.719-.665 0-1.195.24-1.59.72a2.64 2.64 0 0 0-.619 1.602h4.43Zm3.691 3.509c-.8 0-1.2-.442-1.2-1.325V5.525h-1.01v-.58h1.01V3.278h.669v1.665h1.237v.581h-1.237v4.24c0 .556.21.834.631.834a.881.881 0 0 0 .682-.29l.252.504c-.27.253-.614.379-1.035.379Zm5.744-7.207a.484.484 0 0 1-.354-.151.485.485 0 0 1-.15-.354c0-.134.05-.248.15-.34a.484.484 0 0 1 .354-.152c.143 0 .26.05.353.152a.444.444 0 0 1 .152.34.498.498 0 0 1-.505.505Zm.328 7.055h-.656V4.944h.656v6.096Zm3.368.152c-.8 0-1.199-.442-1.199-1.325V5.525h-1.01v-.58h1.01V3.278h.67v1.665h1.236v.581H75.67v4.24c0 .556.21.834.631.834a.881.881 0 0 0 .682-.29l.252.504c-.27.253-.614.379-1.035.379Zm7.992 0c-.875 0-1.582-.307-2.12-.921-.54-.615-.809-1.376-.809-2.285 0-.909.27-1.666.808-2.272.539-.614 1.246-.921 2.12-.921.884 0 1.595.307 2.133.921.539.606.808 1.363.808 2.272 0 .909-.269 1.67-.808 2.285-.538.614-1.249.92-2.132.92Zm0-.593c.69 0 1.232-.253 1.628-.758.404-.513.606-1.131.606-1.855 0-.715-.203-1.325-.606-1.83-.396-.513-.938-.77-1.628-.77-.682 0-1.225.257-1.629.77-.395.505-.593 1.115-.593 1.83 0 .715.198 1.33.593 1.843.404.513.947.77 1.629.77Zm9.406.441h-.656V6.913c0-.555-.127-.946-.38-1.173-.251-.236-.617-.354-1.097-.354a2.32 2.32 0 0 0-1.123.303 2.42 2.42 0 0 0-.859.745v4.606h-.656V4.944h.656v.922c.244-.286.568-.534.972-.745a2.546 2.546 0 0 1 1.224-.328c1.28 0 1.919.66 1.919 1.982v4.265Zm-40.41 14.727c-1.263 0-2.327-.404-3.194-1.211-.858-.808-1.287-1.86-1.287-3.156 0-1.304.43-2.356 1.287-3.155.867-.8 1.931-1.199 3.194-1.199 1.53 0 2.692.627 3.483 1.88l-1.49.808a2.33 2.33 0 0 0-.832-.782 2.186 2.186 0 0 0-1.161-.316c-.766 0-1.397.261-1.894.783-.496.521-.744 1.182-.744 1.981 0 .8.248 1.46.744 1.982.497.521 1.128.782 1.894.782.353 0 .694-.063 1.022-.189.328-.126.585-.278.77-.454v-1.01h-2.222v-1.565h4.014v3.23c-.95 1.061-2.146 1.591-3.584 1.591Zm10.143-.934c-.589.615-1.371.922-2.347.922s-1.759-.307-2.348-.922c-.58-.622-.87-1.384-.87-2.284 0-.9.29-1.658.87-2.272.59-.614 1.372-.921 2.348-.921.976 0 1.758.307 2.347.921.59.614.884 1.371.884 2.272 0 .9-.295 1.662-.884 2.284Zm-3.483-1.01c.278.337.656.505 1.136.505.48 0 .858-.168 1.136-.504.286-.345.429-.77.429-1.275 0-.497-.143-.913-.43-1.25-.277-.345-.656-.517-1.135-.517-.48 0-.858.172-1.136.517-.278.337-.417.753-.417 1.25 0 .505.14.93.417 1.275Zm10.731 1.01c-.59.615-1.372.922-2.348.922-.976 0-1.758-.307-2.347-.922-.581-.622-.871-1.384-.871-2.284 0-.9.29-1.658.87-2.272.59-.614 1.372-.921 2.348-.921.976 0 1.759.307 2.348.921.589.614.883 1.371.883 2.272 0 .9-.294 1.662-.883 2.284Zm-3.484-1.01c.278.337.656.505 1.136.505.48 0 .858-.168 1.136-.504.286-.345.429-.77.429-1.275 0-.497-.143-.913-.43-1.25-.277-.345-.655-.517-1.135-.517s-.858.172-1.136.517c-.278.337-.416.753-.416 1.25 0 .505.138.93.416 1.275Zm8.055 4.254c-1.052 0-1.927-.303-2.625-.909l.72-1.161c.454.505 1.089.757 1.905.757.454 0 .846-.122 1.174-.366.336-.235.505-.627.505-1.174v-.618c-.505.64-1.132.96-1.88.96-.792 0-1.44-.27-1.945-.808-.496-.547-.744-1.313-.744-2.297 0-.976.248-1.738.744-2.285.505-.547 1.153-.82 1.944-.82.757 0 1.384.311 1.88.934v-.783h1.616v5.68c0 .555-.1 1.03-.303 1.426a2.074 2.074 0 0 1-.795.896 3.623 3.623 0 0 1-1.047.429 4.52 4.52 0 0 1-1.149.139Zm.303-3.938c.26 0 .522-.067.782-.202.261-.135.459-.299.594-.492v-1.969a1.45 1.45 0 0 0-.593-.492 1.643 1.643 0 0 0-.783-.202c-.463 0-.837.151-1.123.454-.278.303-.417.711-.417 1.224 0 .514.14.922.417 1.225.286.303.66.454 1.123.454Zm6.184 1.464h-1.603v-8.418h1.603v8.418Zm4.454.152c-.942 0-1.72-.295-2.335-.884-.614-.589-.921-1.363-.921-2.322 0-.9.294-1.658.883-2.272.598-.614 1.355-.921 2.272-.921.909 0 1.645.311 2.209.934.564.614.845 1.422.845 2.423v.353h-4.53c.05.404.23.74.542 1.01.312.27.715.404 1.212.404.269 0 .56-.055.87-.164.32-.11.573-.257.758-.442l.707 1.035c-.614.564-1.452.846-2.512.846Zm1.401-3.774a1.527 1.527 0 0 0-.416-.934c-.244-.278-.606-.417-1.086-.417-.454 0-.808.14-1.06.417-.253.27-.4.58-.442.934h3.004Zm7.769 3.622H93.47v-8.418h3.938c.883 0 1.573.26 2.07.782.505.514.757 1.157.757 1.931 0 .766-.252 1.41-.757 1.931-.505.522-1.195.783-2.07.783h-2.146v2.991Zm1.906-4.569c.362 0 .656-.1.884-.303.235-.21.353-.488.353-.833s-.118-.618-.353-.82c-.228-.21-.522-.316-.884-.316h-1.906v2.272h1.906Zm5.743 4.569h-1.603v-8.418h1.603v8.418Zm6.852 0h-1.603v-.63c-.437.52-1.081.782-1.931.782a2.288 2.288 0 0 1-1.476-.53c-.429-.362-.644-.859-.644-1.49 0-.656.211-1.148.631-1.476a2.384 2.384 0 0 1 1.489-.493c.867 0 1.511.249 1.931.745v-.82a.887.887 0 0 0-.366-.745c-.244-.185-.567-.278-.971-.278-.665 0-1.258.24-1.78.72l-.606-1.073c.724-.64 1.612-.96 2.663-.96.783 0 1.422.182 1.919.543.496.362.744.951.744 1.767v3.938Zm-2.89-.934c.598 0 1.027-.177 1.287-.53v-.757c-.26-.354-.689-.53-1.287-.53-.328 0-.601.084-.82.252a.78.78 0 0 0-.328.67c0 .277.109.495.328.655.219.16.492.24.82.24Zm4.266 3.319.239-1.438c.152.067.32.1.505.1.429 0 .711-.147.846-.441l.227-.517-2.474-6.185h1.717l1.59 4.24 1.59-4.24h1.729l-2.865 7.093c-.21.539-.504.913-.883 1.123-.379.22-.854.337-1.426.354-.295 0-.56-.03-.795-.089Z"/><path d="M.71 3.58.708 15.359C.709 19.46.7 23.56.718 27.66c.002.56.06 1.135.2 1.675.312 1.204 1.326 1.746 2.513 1.353.491-.162.956-.42 1.41-.675a6401.341 6401.341 0 0 0 16.287-9.174 333.914 333.914 0 0 0 5.65-3.286c2.212-1.309 2.188-3.03-.045-4.354a20.8 20.8 0 0 0-.339-.198L5.16.939C1.98-.866.71-.112.71 3.581Z" fill="#ECECEC"/><path d="M1.725 1.767v26.928l13.5-13.403-13.5-13.525ZM2.944.727l-.05.18 13.328 13.298c1.194-1.18 2.49-2.458 3.84-3.79L2.944.727Zm17.118 19.636-3.784-3.785L2.917 29.904l.046.15c5.715-3.24 11.431-6.479 17.1-9.691ZM16.91 15.13l4.499 4.466c1.65-.941 3.45-1.923 5.202-2.982 1.178-.712 1.242-1.652.136-2.344-1.662-1.039-3.385-1.983-5.107-2.92-.219-.118-.696-.064-.878.103-1.345 1.232-2.645 2.514-3.852 3.677Z"/></svg><svg fill="none" viewBox="0 0 118 32" id="android-mobail" xmlns="http://www.w3.org/2000/svg"><path d="M44.276 12.204c-1.203 0-2.217-.408-3.042-1.224-.816-.816-1.224-1.863-1.224-3.142 0-1.28.408-2.323 1.224-3.13.825-.817 1.839-1.225 3.042-1.225 1.279 0 2.335.48 3.168 1.44l-.543.39a3.196 3.196 0 0 0-1.149-.858 3.472 3.472 0 0 0-1.476-.315c-1.001 0-1.839.345-2.512 1.035-.665.69-.997 1.577-.997 2.663 0 1.077.332 1.964.997 2.663.673.698 1.51 1.047 2.512 1.047.513 0 .984-.1 1.413-.303.43-.202.783-.441 1.06-.72V8.508h-3.18v-.644h3.9v2.94c-.833.934-1.897 1.401-3.193 1.401Zm7.698-.012c-.892 0-1.624-.299-2.196-.896-.572-.598-.858-1.367-.858-2.31 0-.892.277-1.645.833-2.259a2.726 2.726 0 0 1 2.107-.934c.892 0 1.595.311 2.108.934.513.614.77 1.38.77 2.297v.177h-5.099c.034.69.265 1.266.694 1.729.43.463.993.694 1.691.694.808 0 1.473-.282 1.994-.846l.341.43c-.63.656-1.426.984-2.385.984Zm2.095-3.509a2.55 2.55 0 0 0-.593-1.603c-.379-.48-.922-.719-1.628-.719-.665 0-1.195.24-1.59.72a2.64 2.64 0 0 0-.619 1.602h4.43Zm3.691 3.509c-.8 0-1.2-.442-1.2-1.325V6.525h-1.01v-.58h1.01V4.278h.669v1.665h1.237v.581h-1.237v4.24c0 .556.21.834.631.834a.881.881 0 0 0 .682-.29l.252.504c-.27.253-.614.379-1.035.379Zm5.744-7.207a.484.484 0 0 1-.353-.151.485.485 0 0 1-.152-.354c0-.134.05-.248.151-.34a.484.484 0 0 1 .354-.152c.143 0 .26.05.353.152a.444.444 0 0 1 .152.34.498.498 0 0 1-.505.505Zm.328 7.055h-.656V5.944h.656v6.096Zm3.368.152c-.8 0-1.199-.442-1.199-1.325V6.525h-1.01v-.58h1.01V4.278h.67v1.665h1.236v.581H66.67v4.24c0 .556.21.834.631.834a.881.881 0 0 0 .682-.29l.252.504c-.27.253-.614.379-1.035.379Zm7.992 0c-.875 0-1.582-.307-2.12-.921-.54-.615-.809-1.376-.809-2.285 0-.909.27-1.666.808-2.272.539-.614 1.246-.921 2.12-.921.884 0 1.595.307 2.133.921.539.606.808 1.363.808 2.272 0 .909-.269 1.67-.808 2.285-.538.614-1.249.92-2.132.92Zm0-.593c.69 0 1.232-.253 1.628-.758.404-.513.606-1.131.606-1.855 0-.715-.203-1.325-.606-1.83-.396-.513-.938-.77-1.628-.77-.682 0-1.225.257-1.629.77-.395.505-.593 1.115-.593 1.83 0 .715.198 1.33.593 1.843.404.513.947.77 1.629.77Zm9.406.441h-.656V7.913c0-.555-.127-.946-.38-1.173-.251-.236-.617-.354-1.097-.354a2.32 2.32 0 0 0-1.123.303 2.42 2.42 0 0 0-.859.745v4.606h-.656V5.944h.656v.922c.244-.286.568-.534.972-.745a2.546 2.546 0 0 1 1.224-.328c1.28 0 1.919.66 1.919 1.982v4.265Zm-40.41 14.727c-1.263 0-2.327-.404-3.194-1.211-.858-.808-1.287-1.86-1.287-3.156 0-1.304.43-2.356 1.287-3.155.867-.8 1.931-1.199 3.194-1.199 1.53 0 2.692.627 3.483 1.88l-1.49.808a2.33 2.33 0 0 0-.832-.782 2.186 2.186 0 0 0-1.161-.316c-.766 0-1.397.261-1.894.783-.496.521-.744 1.182-.744 1.981 0 .8.248 1.46.744 1.982.497.521 1.128.782 1.894.782.353 0 .694-.063 1.022-.189.328-.126.585-.278.77-.454v-1.01h-2.222v-1.565h4.014v3.23c-.95 1.061-2.146 1.591-3.584 1.591Zm10.143-.934c-.589.615-1.371.922-2.347.922s-1.759-.307-2.348-.922c-.58-.622-.87-1.384-.87-2.284 0-.9.29-1.658.87-2.272.59-.614 1.372-.921 2.348-.921.976 0 1.758.307 2.347.921.59.614.884 1.371.884 2.272 0 .9-.295 1.662-.884 2.284Zm-3.483-1.01c.278.337.656.505 1.136.505.48 0 .858-.168 1.136-.504.286-.345.429-.77.429-1.275 0-.497-.143-.913-.43-1.25-.277-.345-.656-.517-1.135-.517-.48 0-.858.172-1.136.517-.278.337-.417.753-.417 1.25 0 .505.14.93.417 1.275Zm10.73 1.01c-.589.615-1.371.922-2.347.922s-1.759-.307-2.348-.922c-.58-.622-.87-1.384-.87-2.284 0-.9.29-1.658.87-2.272.59-.614 1.372-.921 2.348-.921.976 0 1.758.307 2.347.921.59.614.884 1.371.884 2.272 0 .9-.295 1.662-.884 2.284Zm-3.483-1.01c.278.337.656.505 1.136.505.48 0 .858-.168 1.136-.504.286-.345.429-.77.429-1.275 0-.497-.143-.913-.43-1.25-.277-.345-.655-.517-1.135-.517s-.858.172-1.136.517c-.277.337-.416.753-.416 1.25 0 .505.139.93.416 1.275Zm8.055 4.254c-1.052 0-1.927-.303-2.625-.909l.72-1.161c.454.505 1.089.757 1.905.757.454 0 .846-.122 1.174-.366.336-.235.505-.627.505-1.174v-.618c-.505.64-1.132.96-1.88.96-.792 0-1.44-.27-1.945-.808-.496-.547-.744-1.313-.744-2.297 0-.976.248-1.738.744-2.285.505-.547 1.153-.82 1.944-.82.757 0 1.384.311 1.88.934v-.783h1.616v5.68c0 .555-.1 1.03-.303 1.426a2.075 2.075 0 0 1-.795.896 3.623 3.623 0 0 1-1.047.429 4.52 4.52 0 0 1-1.149.139Zm.303-3.938c.26 0 .522-.067.782-.202.261-.135.459-.299.594-.492v-1.969a1.45 1.45 0 0 0-.593-.492 1.643 1.643 0 0 0-.783-.202c-.463 0-.837.151-1.123.454-.278.303-.417.711-.417 1.224 0 .514.14.922.417 1.225.286.303.66.454 1.123.454Zm6.184 1.464h-1.603v-8.418h1.603v8.418Zm4.454.152c-.942 0-1.72-.295-2.335-.884-.614-.589-.921-1.363-.921-2.322 0-.9.294-1.658.883-2.272.598-.614 1.355-.921 2.272-.921.909 0 1.645.311 2.209.934.564.614.845 1.422.845 2.423v.353h-4.53c.05.404.23.74.542 1.01.312.27.715.404 1.212.404.269 0 .56-.055.87-.164.32-.11.573-.257.758-.442l.707 1.035c-.614.564-1.452.846-2.512.846Zm1.401-3.774a1.527 1.527 0 0 0-.416-.934c-.244-.278-.606-.417-1.086-.417-.454 0-.808.14-1.06.417-.253.27-.4.58-.442.934h3.004Zm7.769 3.622H84.47v-8.418h3.938c.883 0 1.573.26 2.07.782.505.514.757 1.157.757 1.931 0 .766-.252 1.41-.757 1.931-.505.522-1.195.783-2.07.783h-2.146v2.991Zm1.906-4.569c.362 0 .656-.1.884-.303.235-.21.353-.488.353-.833s-.118-.618-.353-.82c-.228-.21-.522-.316-.884-.316h-1.906v2.272h1.906Zm5.743 4.569h-1.603v-8.418h1.603v8.418Zm6.852 0h-1.603v-.63c-.437.52-1.08.782-1.93.782a2.29 2.29 0 0 1-1.477-.53c-.43-.362-.644-.859-.644-1.49 0-.656.21-1.148.631-1.476.43-.329.926-.493 1.49-.493.866 0 1.51.249 1.93.745v-.82a.887.887 0 0 0-.366-.745c-.244-.185-.568-.278-.971-.278-.665 0-1.258.24-1.78.72l-.606-1.073c.724-.64 1.612-.96 2.663-.96.783 0 1.422.182 1.919.543.496.362.744.951.744 1.767v3.938Zm-2.89-.934c.597 0 1.027-.177 1.287-.53v-.757c-.26-.354-.69-.53-1.287-.53-.328 0-.601.084-.82.252a.781.781 0 0 0-.328.67c0 .277.109.495.328.655.219.16.492.24.82.24Zm4.266 3.319.239-1.438c.152.067.32.1.505.1.429 0 .711-.147.846-.441l.227-.517-2.474-6.185h1.717l1.59 4.24 1.59-4.24h1.729l-2.865 7.093c-.21.539-.504.913-.883 1.123-.379.22-.854.337-1.426.354-.295 0-.56-.03-.795-.089Z" fill="#202020"/><path d="M.71 4.58.708 16.359C.709 20.46.7 24.56.718 28.66c.002.56.06 1.135.2 1.675.312 1.204 1.326 1.746 2.513 1.353.491-.162.956-.42 1.41-.675a6401.341 6401.341 0 0 0 16.287-9.174 333.914 333.914 0 0 0 5.65-3.286c2.212-1.309 2.188-3.03-.045-4.354a20.8 20.8 0 0 0-.339-.198L5.16 1.939C1.98.134.71.888.71 4.581Z" fill="#ECECEC"/><path d="M1.725 2.767v26.928l13.5-13.403-13.5-13.525Zm1.219-1.04-.05.18 13.328 13.298c1.194-1.18 2.49-2.458 3.84-3.79L2.944 1.727Zm17.118 19.636-3.784-3.785L2.917 30.904l.046.15c5.715-3.24 11.431-6.479 17.1-9.691ZM16.91 16.13l4.499 4.466c1.65-.941 3.45-1.923 5.202-2.982 1.178-.712 1.242-1.652.136-2.344-1.662-1.039-3.385-1.983-5.107-2.92-.219-.118-.696-.064-.878.103-1.345 1.232-2.645 2.514-3.852 3.677Z" fill="#202020"/></svg><svg viewBox="0 0 132 31" id="ios" xmlns="http://www.w3.org/2000/svg"><path d="M22.877 9.281c-4.287 4.489-4.037 8.247.944 11.491-1.172 2.554-2.352 5.183-4.85 6.718-.898.552-2.466.598-3.498.228-2.061-.738-3.969-.873-5.955.028-1.552.704-2.955.495-4.295-.592C1.424 24.074-.98 16.382.386 11.706c1.07-3.665 5.245-7.119 9.77-4.695 1.698.908 3.259.475 4.905-.199 3.228-1.32 5.77-.47 7.816 2.469Z"/><path d="M17.044 0c.348 3.37-1.843 6.088-5.133 6.483C11.121 3.56 13.51.48 17.044 0Zm25.525 13.592H39.88V5.174h2.688c1.271 0 2.297.408 3.08 1.224.782.808 1.174 1.805 1.174 2.991 0 1.195-.392 2.196-1.174 3.004-.774.8-1.8 1.199-3.08 1.199Zm0-.656c1.076 0 1.926-.337 2.549-1.01.63-.673.947-1.519.947-2.537s-.312-1.863-.934-2.537c-.623-.681-1.477-1.022-2.563-1.022H40.6v7.106h1.968Zm8.599.807c-.875 0-1.582-.307-2.12-.92-.539-.615-.808-1.377-.808-2.285 0-.909.27-1.666.808-2.272.538-.614 1.245-.921 2.12-.921.884 0 1.595.307 2.133.921.539.606.808 1.363.808 2.272 0 .909-.27 1.67-.808 2.284-.538.614-1.25.921-2.133.921Zm0-.593c.69 0 1.233-.252 1.628-.757.404-.513.606-1.132.606-1.855 0-.715-.202-1.325-.606-1.83-.395-.514-.938-.77-1.628-.77-.681 0-1.224.256-1.628.77-.395.505-.593 1.115-.593 1.83 0 .715.198 1.33.593 1.842.404.514.947.77 1.628.77Zm10.492.442h-.631L59.325 8.38l-1.717 5.212h-.63l-1.982-6.096h.707l1.615 5.175 1.717-5.175h.568l1.716 5.175 1.616-5.175h.706l-1.981 6.096Zm7.986 0h-.656V9.465c0-.555-.127-.947-.38-1.174-.251-.235-.617-.353-1.097-.353-.379 0-.753.1-1.123.303-.37.202-.657.45-.859.744v4.607h-.656V7.496h.656v.921a3.19 3.19 0 0 1 .972-.744 2.546 2.546 0 0 1 1.224-.328c1.28 0 1.919.66 1.919 1.981v4.266Zm2.701 0h-.656V5.174h.656v8.418Zm4.618.151c-.875 0-1.582-.307-2.12-.92-.539-.615-.808-1.377-.808-2.285 0-.909.269-1.666.807-2.272.539-.614 1.246-.921 2.12-.921.884 0 1.595.307 2.134.921.538.606.808 1.363.808 2.272 0 .909-.27 1.67-.808 2.284-.539.614-1.25.921-2.133.921Zm0-.593c.69 0 1.232-.252 1.628-.757.404-.513.606-1.132.606-1.855 0-.715-.202-1.325-.606-1.83-.396-.514-.938-.77-1.628-.77-.682 0-1.224.256-1.628.77-.396.505-.594 1.115-.594 1.83 0 .715.198 1.33.594 1.842.404.514.946.77 1.628.77Zm9.166.442h-.656v-.72c-.53.581-1.22.871-2.07.871-.564 0-1.06-.18-1.49-.542-.428-.37-.643-.867-.643-1.49 0-.63.21-1.123.631-1.476a2.26 2.26 0 0 1 1.502-.543c.858 0 1.548.29 2.07.871V9.326c0-.437-.156-.778-.467-1.022-.311-.253-.703-.379-1.174-.379-.749 0-1.384.299-1.906.896l-.365-.454c.63-.682 1.413-1.022 2.347-1.022.656 0 1.19.164 1.603.492.412.328.618.816.618 1.464v4.291Zm-2.499-.366c.8 0 1.414-.278 1.843-.833v-1.338c-.438-.563-1.052-.845-1.843-.845-.496 0-.9.143-1.211.429a1.429 1.429 0 0 0-.455 1.085c0 .438.152.8.455 1.085.311.278.715.417 1.211.417Zm9.712.366h-.669v-.972a2.64 2.64 0 0 1-.909.808c-.37.21-.774.315-1.211.315-.816 0-1.477-.29-1.982-.87-.496-.58-.744-1.355-.744-2.323 0-.959.252-1.733.757-2.322s1.161-.883 1.969-.883c.875 0 1.582.378 2.12 1.136V5.174h.669v8.418Zm-2.676-.442a2.34 2.34 0 0 0 1.174-.315c.37-.21.648-.467.833-.77V9.048c-.185-.31-.463-.572-.833-.782a2.272 2.272 0 0 0-1.174-.328c-.656 0-1.178.248-1.565.744-.378.488-.568 1.111-.568 1.868 0 .758.19 1.38.568 1.868.387.488.909.732 1.565.732Zm10.565.593c-.875 0-1.582-.307-2.12-.92-.539-.615-.808-1.377-.808-2.285 0-.909.27-1.666.808-2.272.538-.614 1.245-.921 2.12-.921.884 0 1.595.307 2.133.921.539.606.808 1.363.808 2.272 0 .909-.269 1.67-.808 2.284-.538.614-1.249.921-2.133.921Zm0-.593c.69 0 1.233-.252 1.628-.757.404-.513.606-1.132.606-1.855 0-.715-.202-1.325-.606-1.83-.395-.514-.938-.77-1.628-.77-.681 0-1.224.256-1.628.77-.395.505-.593 1.115-.593 1.83 0 .715.198 1.33.593 1.842.404.514.947.77 1.628.77Zm9.406.442h-.656V9.465c0-.555-.126-.947-.379-1.174-.252-.235-.618-.353-1.098-.353-.378 0-.753.1-1.123.303a2.42 2.42 0 0 0-.858.744v4.607h-.656V7.496h.656v.921a3.19 3.19 0 0 1 .972-.744 2.547 2.547 0 0 1 1.224-.328c1.279 0 1.918.66 1.918 1.981v4.266Zm6.637.151c-.799 0-1.199-.441-1.199-1.325V8.077h-1.01v-.58h1.01V5.83h.669v1.666h1.237v.58h-1.237v4.241c0 .556.21.833.631.833a.88.88 0 0 0 .681-.29l.253.505c-.269.252-.614.378-1.035.378Zm6.921-.151h-.656V9.44c0-.556-.126-.943-.379-1.161-.252-.228-.618-.341-1.098-.341-.378 0-.753.1-1.123.303a2.42 2.42 0 0 0-.858.744v4.607h-.657V5.174h.657v3.243c.244-.286.568-.534.971-.744a2.547 2.547 0 0 1 1.225-.328c1.279 0 1.918.652 1.918 1.956v4.291Zm4.746.151c-.892 0-1.624-.298-2.196-.896-.572-.597-.858-1.367-.858-2.31 0-.891.277-1.644.833-2.258a2.726 2.726 0 0 1 2.107-.934c.892 0 1.595.311 2.108.934.513.614.77 1.38.77 2.297v.176h-5.099c.034.69.265 1.267.694 1.73.429.462.993.694 1.692.694.807 0 1.472-.282 1.994-.846l.34.429c-.631.656-1.426.984-2.385.984Zm2.095-3.508a2.548 2.548 0 0 0-.593-1.603c-.379-.48-.921-.72-1.628-.72-.665 0-1.195.24-1.59.72a2.64 2.64 0 0 0-.619 1.603h4.43Zm-83.522 17.92H45.47l-.517-1.427h-3.61l-.53 1.427H38.77l3.256-8.419h2.246l3.244 8.419Zm-3.054-3.004-1.313-3.622-1.313 3.622h2.626Zm7.277 3.155c-.766 0-1.393-.311-1.88-.934v3.105h-1.604v-8.418h1.603v.77c.48-.615 1.107-.922 1.88-.922.8 0 1.448.286 1.944.859.505.563.758 1.342.758 2.334 0 .993-.253 1.776-.758 2.348-.496.572-1.144.858-1.943.858Zm-.505-1.426c.463 0 .833-.164 1.11-.492.287-.328.43-.758.43-1.288 0-.521-.143-.946-.43-1.274-.277-.328-.647-.492-1.11-.492-.26 0-.522.067-.783.201-.26.135-.458.3-.593.493v2.158c.135.193.333.357.593.492.27.135.53.202.783.202Zm7.863 1.426c-.766 0-1.393-.311-1.88-.934v3.105h-1.603v-8.418h1.602v.77c.48-.615 1.107-.922 1.88-.922.8 0 1.448.286 1.945.859.504.563.757 1.342.757 2.334 0 .993-.253 1.776-.757 2.348-.497.572-1.145.858-1.944.858Zm-.505-1.426c.463 0 .833-.164 1.11-.492.287-.328.43-.758.43-1.288 0-.521-.143-.946-.43-1.274-.277-.328-.647-.492-1.11-.492-.26 0-.522.067-.782.201a1.59 1.59 0 0 0-.594.493v2.158c.135.193.333.357.594.492.269.135.53.202.782.202Zm10.638 1.426c-1.498 0-2.684-.446-3.56-1.338l.973-1.363c.723.758 1.615 1.136 2.675 1.136.463 0 .82-.088 1.073-.265.26-.185.391-.408.391-.669 0-.227-.122-.416-.366-.568-.235-.151-.534-.26-.896-.328a11.677 11.677 0 0 1-2.335-.72 2.203 2.203 0 0 1-.896-.756c-.235-.345-.353-.766-.353-1.263 0-.723.29-1.329.87-1.817.581-.497 1.355-.745 2.323-.745 1.338 0 2.432.392 3.281 1.174l-.997 1.313c-.664-.615-1.48-.922-2.448-.922-.379 0-.673.076-.884.227a.722.722 0 0 0-.315.619c0 .202.118.374.353.517.244.135.543.236.896.303a9.16 9.16 0 0 1 1.162.303c.42.126.807.274 1.16.442.362.16.661.416.897.77.244.345.366.761.366 1.25 0 .807-.29 1.46-.871 1.955-.572.497-1.405.745-2.5.745Zm6.41 0c-.563 0-.992-.143-1.287-.429-.294-.286-.441-.698-.441-1.237v-3.18h-1.01v-1.401h1.01v-1.666h1.615v1.666h1.237v1.4h-1.237v2.752c0 .194.05.354.151.48a.492.492 0 0 0 .404.189c.253 0 .438-.059.556-.177l.34 1.212c-.294.26-.74.391-1.337.391Zm7.395-.921c-.589.614-1.371.921-2.347.921s-1.759-.307-2.348-.921c-.58-.623-.87-1.384-.87-2.285 0-.9.29-1.657.87-2.271.59-.615 1.372-.922 2.348-.922.976 0 1.758.307 2.347.922.59.614.884 1.371.884 2.271 0 .9-.295 1.662-.884 2.285Zm-3.483-1.01c.277.337.656.505 1.136.505.48 0 .858-.168 1.135-.505.287-.345.43-.77.43-1.275 0-.496-.143-.913-.43-1.249-.277-.345-.656-.517-1.135-.517-.48 0-.859.172-1.136.517-.278.337-.417.753-.417 1.25 0 .504.139.93.417 1.274Zm7.158 1.78h-1.602v-6.096h1.603v.833c.227-.286.517-.522.87-.707a2.29 2.29 0 0 1 1.073-.278v1.565a2.118 2.118 0 0 0-1.3.164c-.303.135-.517.3-.643.493v4.026Zm5.81.151c-.942 0-1.72-.294-2.334-.883-.614-.59-.922-1.363-.922-2.323 0-.9.295-1.657.884-2.271.597-.615 1.355-.922 2.272-.922.908 0 1.645.312 2.208.934.564.614.846 1.422.846 2.424v.353h-4.531c.05.404.231.74.543 1.01.311.269.715.403 1.211.403.27 0 .56-.054.871-.164.32-.109.572-.256.758-.441l.706 1.035c-.614.563-1.451.845-2.511.845Zm1.402-3.774a1.527 1.527 0 0 0-.417-.933c-.244-.278-.606-.417-1.085-.417-.455 0-.808.139-1.06.417-.253.269-.4.58-.442.933h3.004Z"/></svg><svg viewBox="0 0 24 24" id="right-arrow" xmlns="http://www.w3.org/2000/svg"><path d="M12.355 4v4.286H1v6.428h11.355V19L23 11.5 12.355 4Z"/></svg></svg>