<svg width="99" height="25" fill="none" xmlns="http://www.w3.org/2000/svg"><g clip-path="url(#a)"><mask id="b" style="mask-type:luminance" maskUnits="userSpaceOnUse" x="0" y="0" width="99" height="25"><path d="M99 0H0v24.96h99V0Z" fill="#fff"/></mask><g mask="url(#b)" fill="#000"><path d="M19.928.516h3.374V3.03c.578-.97 1.399-1.712 2.493-2.242 1.094-.53 2.326-.804 3.724-.804 1.687 0 3.177.394 4.484 1.182 1.307.788 2.31 1.895 3.025 3.32.715 1.424 1.08 3.06 1.08 4.91 0 1.848-.365 3.53-1.08 4.94-.714 1.425-1.733 2.53-3.025 3.319-1.292.788-2.797 1.182-4.484 1.182-1.292 0-2.432-.243-3.435-.697-1.003-.47-1.794-1.137-2.356-2v8.79h-3.785V.515h-.015ZM25.11 13.76c.973 1.122 2.174 1.682 3.77 1.682s2.827-.56 3.815-1.682c.988-1.121 1.474-2.516 1.474-4.334 0-1.819-.486-3.183-1.474-4.304C31.708 4 30.476 3.44 28.881 3.44c-1.596 0-2.797.56-3.77 1.682-.973 1.121-1.46 2.5-1.46 4.304 0 1.803.487 3.213 1.46 4.334ZM44.43 17.686c-1.307-.788-2.31-1.894-3.025-3.319-.714-1.424-1.079-3.076-1.079-4.94 0-1.864.365-3.486 1.08-4.91.714-1.425 1.732-2.531 3.024-3.32C45.722.41 47.227.017 48.914.017c1.384 0 2.615.257 3.694.773 1.08.515 1.915 1.242 2.508 2.182V.516h3.344v17.822h-3.344v-2.486c-.593.94-1.429 1.667-2.508 2.213-1.08.53-2.31.803-3.694.803-1.687 0-3.177-.394-4.484-1.182Zm1.277-3.895c.973 1.107 2.25 1.652 3.815 1.652 1.566 0 2.828-.545 3.785-1.652.958-1.106 1.43-2.56 1.43-4.364 0-1.804-.472-3.228-1.43-4.335-.957-1.106-2.22-1.651-3.785-1.651S46.68 4 45.707 5.092c-.973 1.107-1.474 2.546-1.474 4.335 0 1.788.486 3.258 1.474 4.364ZM63.036 21.627h8.436c1.216 0 2.143-.333 2.782-.985.638-.652.942-1.607.942-2.834v-2.531c-.638.833-1.413 1.47-2.34 1.88-.928.408-1.946.605-3.071.605-1.657 0-3.147-.363-4.439-1.106-1.307-.742-2.31-1.788-3.025-3.152-.714-1.364-1.079-2.91-1.079-4.668s.365-3.258 1.08-4.592a7.646 7.646 0 0 1 3.024-3.106C66.654.395 68.128.03 69.785.03c1.17 0 2.25.212 3.237.652a6.364 6.364 0 0 1 2.493 1.94V.516h3.344v16.989c0 2.515-.638 4.395-1.9 5.622-1.261 1.228-3.055 1.834-5.35 1.834H63.02v-3.334h.015Zm3.511-8.82c.927 1.015 2.128 1.53 3.603 1.53 1.474 0 2.69-.515 3.602-1.53.927-1.016 1.383-2.35 1.383-3.97 0-1.622-.456-2.91-1.383-3.91-.927-1.001-2.128-1.501-3.602-1.501-1.475 0-2.69.5-3.603 1.5-.927 1-1.383 2.304-1.383 3.91 0 1.607.456 2.955 1.383 3.97ZM84.12 15.958c-1.627-1.591-2.433-3.804-2.433-6.623 0-1.879.365-3.516 1.095-4.925a7.935 7.935 0 0 1 3.1-3.258C87.19.379 88.726 0 90.413 0c2.645 0 4.743.803 6.278 2.394C98.225 3.986 99 6.26 99 9.002c0 .394-.03.97-.106 1.697H85.472c.107 1.5.654 2.47 1.672 3.289 1.019.818 2.493 1.152 4.424 1.152h6.323v3.212h-6.597c-3.192 0-5.548-.803-7.16-2.394h-.014ZM95.23 7.79v-.182c0-1.364-.426-2.47-1.277-3.304-.851-.834-2.021-1.258-3.526-1.258s-2.615.44-3.512 1.303c-.896.88-1.368 2.016-1.444 3.425h9.759v.016ZM0 .516h4.469l6.703 8.91 6.704 8.927h-4.469l-4.469-5.951-4.47 5.95H0l6.703-8.925L0 .516ZM10.64 4.198 13.407.516h4.469l-4.378 5.819a1.784 1.784 0 1 1-2.857-2.137Z"/></g></g><defs><clipPath id="a"><path fill="#fff" d="M0 0h99v24.316H0z"/></clipPath></defs></svg>