<?xml version="1.0" standalone="no"?>
<!DOCTYPE svg PUBLIC "-//W3C//DTD SVG 20010904//EN"
 "http://www.w3.org/TR/2001/REC-SVG-20010904/DTD/svg10.dtd">
<svg version="1.0" xmlns="http://www.w3.org/2000/svg"
 width="16.000000pt" height="16.000000pt" viewBox="0 0 16.000000 16.000000"
 preserveAspectRatio="xMidYMid meet">

<g transform="translate(0.000000,16.000000) scale(0.100000,-0.100000)"
fill="#F36722" stroke="none">
<path d="M43 148 c-55 -27 -50 -114 8 -138 89 -37 151 99 63 139 -30 13 -42
13 -71 -1z m46 -63 c23 -32 28 -45 17 -45 -8 0 -17 6 -20 13 -5 10 -7 10 -12
0 -3 -7 -12 -13 -20 -13 -12 0 -12 4 -2 20 10 16 10 24 0 40 -14 23 -15 30 -4
30 5 0 23 -20 41 -45z m31 36 c0 -5 -7 -14 -15 -21 -12 -10 -15 -10 -15 2 0 8
3 18 7 21 9 10 23 9 23 -2z"/>
</g>
</svg>
