<svg width="118" height="32" viewBox="0 0 118 32" fill="none" xmlns="http://www.w3.org/2000/svg">
<path d="M44.2758 12.2045C43.0726 12.2045 42.0587 11.7964 41.2342 10.9803C40.418 10.1641 40.0099 9.11657 40.0099 7.83764C40.0099 6.55871 40.418 5.51538 41.2342 4.70763C42.0587 3.89148 43.0726 3.4834 44.2758 3.4834C45.5548 3.4834 46.6107 3.963 47.4437 4.92219L46.901 5.31344C46.5981 4.95164 46.2153 4.66556 45.7525 4.45522C45.2981 4.24486 44.8059 4.13969 44.2758 4.13969C43.2746 4.13969 42.4374 4.48466 41.7643 5.17461C41.0995 5.86456 40.7672 6.75224 40.7672 7.83764C40.7672 8.91463 41.0995 9.80231 41.7643 10.5007C42.4374 11.199 43.2746 11.5482 44.2758 11.5482C44.7891 11.5482 45.2603 11.4472 45.6894 11.2453C46.1185 11.0434 46.4719 10.8036 46.7495 10.5259V8.50655H43.5691V7.86288H47.4689V10.8036C46.636 11.7375 45.5716 12.2045 44.2758 12.2045Z" fill="#202020"/>
<path d="M51.9738 12.1919C51.082 12.1919 50.3499 11.8932 49.7778 11.2958C49.2056 10.6984 48.9196 9.92852 48.9196 8.98615C48.9196 8.09427 49.1972 7.34122 49.7526 6.72699C50.3163 6.10436 51.0189 5.79304 51.8603 5.79304C52.7521 5.79304 53.4547 6.10436 53.968 6.72699C54.4812 7.34122 54.7378 8.10689 54.7378 9.02401V9.20071H49.639C49.6726 9.89066 49.904 10.467 50.3331 10.9298C50.7622 11.3926 51.326 11.6239 52.0243 11.6239C52.8321 11.6239 53.4968 11.3421 54.0184 10.7783L54.3592 11.2074C53.7282 11.8637 52.933 12.1919 51.9738 12.1919ZM54.0689 8.68325C54.0605 8.09427 53.8628 7.55998 53.4757 7.08038C53.0971 6.60078 52.5544 6.36099 51.8476 6.36099C51.1829 6.36099 50.6528 6.60078 50.2574 7.08038C49.8703 7.55157 49.6642 8.08585 49.639 8.68325H54.0689Z" fill="#202020"/>
<path d="M57.7591 12.1919C56.9598 12.1919 56.5601 11.7501 56.5601 10.8667V6.52506H55.5504V5.94449H56.5601V4.27852H57.229V5.94449H58.4659V6.52506H57.229V10.7657C57.229 11.321 57.4394 11.5987 57.8601 11.5987C58.1377 11.5987 58.3649 11.5019 58.5416 11.3084L58.794 11.8133C58.5248 12.0657 58.1798 12.1919 57.7591 12.1919Z" fill="#202020"/>
<path d="M63.5039 4.9853C63.3693 4.9853 63.2515 4.93481 63.1505 4.83384C63.0496 4.73288 62.9991 4.61508 62.9991 4.48046C62.9991 4.34583 63.0496 4.23224 63.1505 4.13969C63.2515 4.03872 63.3693 3.98824 63.5039 3.98824C63.6469 3.98824 63.7647 4.03872 63.8573 4.13969C63.9583 4.23224 64.0087 4.34583 64.0087 4.48046C64.0087 4.62349 63.9583 4.7455 63.8573 4.84647C63.7647 4.93902 63.6469 4.9853 63.5039 4.9853ZM63.8321 12.0404H63.1758V5.94449H63.8321V12.0404Z" fill="#202020"/>
<path d="M67.2002 12.1919C66.4009 12.1919 66.0012 11.7501 66.0012 10.8667V6.52506H64.9915V5.94449H66.0012V4.27852H66.6701V5.94449H67.907V6.52506H66.6701V10.7657C66.6701 11.321 66.8805 11.5987 67.3012 11.5987C67.5788 11.5987 67.806 11.5019 67.9827 11.3084L68.2351 11.8133C67.9659 12.0657 67.6209 12.1919 67.2002 12.1919Z" fill="#202020"/>
<path d="M75.1915 12.1919C74.3165 12.1919 73.6097 11.8848 73.0712 11.2706C72.5327 10.6563 72.2635 9.89486 72.2635 8.98615C72.2635 8.07744 72.5327 7.32018 73.0712 6.71437C73.6097 6.10015 74.3165 5.79304 75.1915 5.79304C76.075 5.79304 76.786 6.10015 77.3245 6.71437C77.863 7.32018 78.1322 8.07744 78.1322 8.98615C78.1322 9.89486 77.863 10.6563 77.3245 11.2706C76.786 11.8848 76.075 12.1919 75.1915 12.1919ZM75.1915 11.5987C75.8815 11.5987 76.4242 11.3463 76.8196 10.8414C77.2235 10.3282 77.4255 9.70976 77.4255 8.98615C77.4255 8.27096 77.2235 7.66095 76.8196 7.15611C76.4242 6.64285 75.8815 6.38623 75.1915 6.38623C74.51 6.38623 73.9673 6.64285 73.5634 7.15611C73.168 7.66095 72.9702 8.27096 72.9702 8.98615C72.9702 9.70134 73.168 10.3156 73.5634 10.8288C73.9673 11.3421 74.51 11.5987 75.1915 11.5987Z" fill="#202020"/>
<path d="M84.5978 12.0404H83.9415V7.91337C83.9415 7.35804 83.8153 6.96679 83.5629 6.73961C83.3105 6.50402 82.9445 6.38623 82.4649 6.38623C82.0862 6.38623 81.7118 6.4872 81.3416 6.68913C80.9714 6.89107 80.6853 7.13928 80.4834 7.43377V12.0404H79.8271V5.94449H80.4834V6.86582C80.7274 6.57975 81.0513 6.33154 81.4552 6.12119C81.8591 5.90242 82.2671 5.79304 82.6794 5.79304C83.9584 5.79304 84.5978 6.45354 84.5978 7.77454V12.0404Z" fill="#202020"/>
<path d="M44.1875 26.7672C42.9254 26.7672 41.861 26.3633 40.9944 25.5556C40.1361 24.7478 39.707 23.6961 39.707 22.4003C39.707 21.0962 40.1361 20.0444 40.9944 19.2451C41.861 18.4457 42.9254 18.0461 44.1875 18.0461C45.7188 18.0461 46.88 18.6729 47.6709 19.9266L46.1816 20.7344C45.9797 20.4146 45.702 20.1538 45.3486 19.9519C45.0036 19.7415 44.6166 19.6363 44.1875 19.6363C43.4218 19.6363 42.7908 19.8972 42.2943 20.4188C41.7979 20.9405 41.5497 21.601 41.5497 22.4003C41.5497 23.1997 41.7979 23.8602 42.2943 24.3818C42.7908 24.9035 43.4218 25.1643 44.1875 25.1643C44.5409 25.1643 44.8816 25.1012 45.2098 24.975C45.5379 24.8488 45.7946 24.6973 45.9797 24.5207V23.511H43.7584V21.946H47.7718V25.1769C46.8211 26.2371 45.6263 26.7672 44.1875 26.7672Z" fill="#202020"/>
<path d="M54.3313 25.8332C53.7423 26.4475 52.9598 26.7546 51.9838 26.7546C51.0078 26.7546 50.2253 26.4475 49.6363 25.8332C49.0557 25.2106 48.7655 24.4491 48.7655 23.5488C48.7655 22.6485 49.0557 21.8913 49.6363 21.2771C50.2253 20.6628 51.0078 20.3557 51.9838 20.3557C52.9598 20.3557 53.7423 20.6628 54.3313 21.2771C54.9203 21.8913 55.2148 22.6485 55.2148 23.5488C55.2148 24.4491 54.9203 25.2106 54.3313 25.8332ZM50.8479 24.8236C51.1256 25.1601 51.5042 25.3284 51.9838 25.3284C52.4634 25.3284 52.842 25.1601 53.1197 24.8236C53.4058 24.4786 53.5488 24.0537 53.5488 23.5488C53.5488 23.0524 53.4058 22.6359 53.1197 22.2994C52.842 21.9544 52.4634 21.7819 51.9838 21.7819C51.5042 21.7819 51.1256 21.9544 50.8479 22.2994C50.5703 22.6359 50.4314 23.0524 50.4314 23.5488C50.4314 24.0537 50.5703 24.4786 50.8479 24.8236Z" fill="#202020"/>
<path d="M61.5785 25.8332C60.9895 26.4475 60.207 26.7546 59.231 26.7546C58.255 26.7546 57.4725 26.4475 56.8835 25.8332C56.3029 25.2106 56.0127 24.4491 56.0127 23.5488C56.0127 22.6485 56.3029 21.8913 56.8835 21.2771C57.4725 20.6628 58.255 20.3557 59.231 20.3557C60.207 20.3557 60.9895 20.6628 61.5785 21.2771C62.1675 21.8913 62.462 22.6485 62.462 23.5488C62.462 24.4491 62.1675 25.2106 61.5785 25.8332ZM58.0951 24.8236C58.3728 25.1601 58.7514 25.3284 59.231 25.3284C59.7106 25.3284 60.0892 25.1601 60.3669 24.8236C60.653 24.4786 60.796 24.0537 60.796 23.5488C60.796 23.0524 60.653 22.6359 60.3669 22.2994C60.0892 21.9544 59.7106 21.7819 59.231 21.7819C58.7514 21.7819 58.3728 21.9544 58.0951 22.2994C57.8175 22.6359 57.6786 23.0524 57.6786 23.5488C57.6786 24.0537 57.8175 24.4786 58.0951 24.8236Z" fill="#202020"/>
<path d="M66.1501 29.0768C65.0983 29.0768 64.2233 28.7739 63.5249 28.1681L64.2443 27.007C64.6987 27.5118 65.3339 27.7642 66.1501 27.7642C66.6044 27.7642 66.9957 27.6422 67.3238 27.3982C67.6604 27.1626 67.8287 26.7714 67.8287 26.2245V25.6061C67.3238 26.2455 66.697 26.5653 65.9481 26.5653C65.1572 26.5653 64.5093 26.296 64.0045 25.7575C63.5081 25.2106 63.2599 24.4449 63.2599 23.4605C63.2599 22.4845 63.5081 21.723 64.0045 21.1761C64.5093 20.6292 65.1572 20.3557 65.9481 20.3557C66.7054 20.3557 67.3322 20.667 67.8287 21.2897V20.5072H69.4442V26.1866C69.4442 26.7419 69.3432 27.2173 69.1413 27.6128C68.9477 28.0083 68.6827 28.3069 68.3461 28.5089C68.0096 28.7108 67.6604 28.8539 67.2986 28.938C66.9452 29.0306 66.5624 29.0768 66.1501 29.0768ZM66.453 25.1391C66.7138 25.1391 66.9746 25.0718 67.2355 24.9371C67.4963 24.8025 67.694 24.6384 67.8287 24.4449V22.4761C67.694 22.2741 67.4963 22.11 67.2355 21.9838C66.9831 21.8492 66.7222 21.7819 66.453 21.7819C65.9902 21.7819 65.6158 21.9333 65.3297 22.2363C65.0521 22.5392 64.9132 22.9472 64.9132 23.4605C64.9132 23.9737 65.0521 24.3818 65.3297 24.6847C65.6158 24.9876 65.9902 25.1391 66.453 25.1391Z" fill="#202020"/>
<path d="M72.6368 26.6031H71.0339V18.1849H72.6368V26.6031Z" fill="#202020"/>
<path d="M77.0911 26.7546C76.1487 26.7546 75.3704 26.4601 74.7562 25.8711C74.142 25.2821 73.8349 24.508 73.8349 23.5488C73.8349 22.6485 74.1294 21.8913 74.7183 21.2771C75.3157 20.6628 76.073 20.3557 76.9901 20.3557C77.8988 20.3557 78.6351 20.667 79.1988 21.2897C79.7625 21.9039 80.0444 22.7116 80.0444 23.7129V24.0663H75.5135C75.564 24.4702 75.7449 24.8067 76.0562 25.076C76.3675 25.3452 76.7714 25.4798 77.2678 25.4798C77.537 25.4798 77.8273 25.4252 78.1386 25.3158C78.4584 25.2064 78.7108 25.0591 78.8959 24.874L79.6027 25.909C78.9885 26.4727 78.1513 26.7546 77.0911 26.7546ZM78.492 22.9809C78.4668 22.6359 78.328 22.3246 78.0755 22.0469C77.8315 21.7693 77.4697 21.6304 76.9901 21.6304C76.5358 21.6304 76.1824 21.7693 75.93 22.0469C75.6775 22.3162 75.5303 22.6275 75.4882 22.9809H78.492Z" fill="#202020"/>
<path d="M86.2614 26.6031H84.4692V18.1849H88.407C89.2905 18.1849 89.9804 18.4457 90.4768 18.9674C90.9817 19.4807 91.2341 20.1243 91.2341 20.8984C91.2341 21.6641 90.9817 22.3078 90.4768 22.8294C89.972 23.3511 89.2821 23.6119 88.407 23.6119H86.2614V26.6031ZM88.1672 22.0343C88.529 22.0343 88.8235 21.9333 89.0507 21.7314C89.2863 21.5211 89.4041 21.2434 89.4041 20.8984C89.4041 20.5535 89.2863 20.28 89.0507 20.0781C88.8235 19.8677 88.529 19.7625 88.1672 19.7625H86.2614V22.0343H88.1672Z" fill="#202020"/>
<path d="M93.91 26.6031H92.3072V18.1849H93.91V26.6031Z" fill="#202020"/>
<path d="M100.762 26.6031H99.1595V25.9721C98.722 26.4937 98.0783 26.7546 97.2285 26.7546C96.6816 26.7546 96.1894 26.5779 95.7518 26.2245C95.3227 25.8627 95.1082 25.3663 95.1082 24.7352C95.1082 24.0789 95.3185 23.5867 95.7392 23.2586C96.1683 22.9304 96.6647 22.7663 97.2285 22.7663C98.0951 22.7663 98.7388 23.0145 99.1595 23.511V22.6906C99.1595 22.3793 99.0375 22.1311 98.7935 21.946C98.5495 21.7609 98.2255 21.6683 97.8217 21.6683C97.157 21.6683 96.5638 21.9081 96.0421 22.3877L95.4363 21.3149C96.1599 20.6755 97.0476 20.3557 98.0993 20.3557C98.8818 20.3557 99.5213 20.5366 100.018 20.8984C100.514 21.2602 100.762 21.8492 100.762 22.6654V26.6031ZM97.8721 25.6692C98.4695 25.6692 98.8987 25.4925 99.1595 25.1391V24.3818C98.8987 24.0284 98.4695 23.8517 97.8721 23.8517C97.544 23.8517 97.2706 23.9359 97.0518 24.1042C96.833 24.264 96.7236 24.487 96.7236 24.7731C96.7236 25.0507 96.833 25.2695 97.0518 25.4294C97.2706 25.5892 97.544 25.6692 97.8721 25.6692Z" fill="#202020"/>
<path d="M102.138 28.9885L102.377 27.5497C102.529 27.617 102.697 27.6507 102.882 27.6507C103.311 27.6507 103.593 27.5034 103.728 27.2089L103.955 26.6915L101.481 20.5072H103.198L104.788 24.7478L106.378 20.5072H108.107L105.242 27.6002C105.032 28.1387 104.738 28.5131 104.359 28.7234C103.98 28.9422 103.505 29.06 102.933 29.0768C102.638 29.0768 102.373 29.0474 102.138 28.9885Z" fill="#202020"/>
<path d="M0.709169 4.58058C0.708645 8.50655 0.708907 12.4325 0.708907 16.3585C0.708645 20.4591 0.701314 24.5594 0.717547 28.6603C0.719642 29.2198 0.777508 29.7953 0.91759 30.3352C1.23022 31.5392 2.24431 32.0809 3.43147 31.6884C3.92241 31.5261 4.38717 31.2679 4.84093 31.0129C10.273 27.9607 15.7047 24.9074 21.1281 21.8392C23.0241 20.7665 24.903 19.6631 26.7778 18.5534C28.99 17.244 28.9662 15.5227 26.7333 14.1986C26.6209 14.1318 26.5081 14.0653 26.3944 14.0006C19.3162 9.97989 12.2378 5.95993 5.15959 1.93919C1.9809 0.13357 0.70943 0.887918 0.709169 4.58058Z" fill="#ECECEC"/>
<path d="M1.72461 2.7671C1.72461 11.9031 1.72461 20.8783 1.72461 29.6953C6.22635 25.2263 10.7472 20.7382 15.2259 16.2919C10.8347 11.8931 6.36983 7.42044 1.72461 2.7671ZM2.94372 1.72656C2.92722 1.78652 2.91046 1.84675 2.89397 1.90671C7.37947 6.38226 11.865 10.8578 16.2217 15.2051C17.4164 14.0258 18.7125 12.7467 20.062 11.4147C14.3791 8.19861 8.66142 4.96259 2.94372 1.72656ZM20.0623 21.3627C18.6905 19.9906 17.4101 18.7103 16.2785 17.5783C11.8553 21.9892 7.38549 26.4465 2.9157 30.9037C2.93089 30.9537 2.94633 31.0034 2.96152 31.0534C8.67739 27.8143 14.3933 24.5751 20.0623 21.3627ZM16.9095 16.1307C18.4967 17.7061 19.9347 19.1339 21.4089 20.597C23.0592 19.6558 24.8586 18.6739 26.6113 17.6147C27.7895 16.9028 27.8532 15.9633 26.7467 15.2713C25.085 14.2321 23.3624 13.2884 21.6398 12.3516C21.4214 12.233 20.9436 12.2874 20.7619 12.454C19.4171 13.6864 18.1171 14.9676 16.9095 16.1307Z" fill="#202020"/>
</svg>
